<svg width="160" height="40" viewBox="0 0 160 40" fill="none" xmlns="http://www.w3.org/2000/svg">
<path d="M31.2915 12.3159C31.2915 12.3159 28.7302 10.1962 25.4624 10.1962C25.4624 10.1962 21.5763 10.1962 18.8383 13.0224C18.8383 13.0224 16.1004 15.8487 16.1004 19.7348C16.1004 19.7348 16.1004 23.6209 18.8383 26.4472C18.8383 26.4472 21.5763 29.1851 25.4624 29.1851C25.4624 29.1851 28.7302 29.1851 31.2915 27.1537L32.528 28.3902C32.528 28.3902 29.4368 30.9515 25.4624 30.9515C25.4624 30.9515 20.8697 30.9515 17.6018 27.5953C17.6018 27.5953 14.334 24.3275 14.334 19.7348C14.334 19.7348 14.334 15.1421 17.6018 11.8743C17.6018 11.8743 20.8697 8.51807 25.4624 8.51807C25.4624 8.51807 29.4368 8.51807 32.528 10.991L31.2915 12.3159Z" fill="white"/>
<path d="M40.211 16.4663C37.2081 16.4663 35.0884 18.586 35.0884 18.586C32.9688 20.7057 32.9688 23.7086 32.9688 23.7086C32.9688 26.7115 35.0884 28.8312 35.0884 28.8312C37.2081 30.9509 40.211 30.9509 40.211 30.9509C43.6555 30.9509 45.9519 28.0363 45.9519 28.0363V30.5976H47.5417V16.9079H45.9519V19.2926C43.7439 16.4663 40.211 16.4663 40.211 16.4663ZM40.211 18.0561C42.5074 18.0561 44.1855 19.6459 44.1855 19.6459C45.8636 21.3239 45.8636 23.7086 45.8636 23.7086C45.8636 26.0049 44.1855 27.683 44.1855 27.683C42.5074 29.3611 40.211 29.3611 40.211 29.3611C37.8264 29.3611 36.2366 27.683 36.2366 27.683C34.5585 26.0049 34.5585 23.7086 34.5585 23.7086C34.5585 21.3239 36.2366 19.6459 36.2366 19.6459C37.8264 18.0561 40.211 18.0561 40.211 18.0561Z" fill="white"/>
<path d="M70.3289 10.6378C70.3289 10.6378 69.3574 10.6378 69.3574 9.66629C69.3574 9.66629 69.3574 8.60645 70.3289 8.60645C70.3289 8.60645 71.3888 8.60645 71.3888 9.66629C71.3888 9.66629 71.3888 10.6378 70.3289 10.6378Z" fill="white"/>
<path d="M52.3119 8.60645V30.5983H50.6338V8.60645H52.3119Z" fill="white"/>
<path d="M60.703 27.5955L65.5607 16.9087H67.3271L60.703 31.4816L53.9023 16.9087H55.7571L60.703 27.5955Z" fill="white"/>
<path d="M75.7167 18.2337C75.7167 18.2337 77.0415 16.4673 79.6028 16.4673C79.6028 16.4673 81.8992 16.4673 83.4889 18.0571C83.4889 18.0571 85.0787 19.6468 85.0787 21.9432V30.5986H83.4889V21.9432C83.4889 21.9432 83.4889 20.2651 82.3408 19.1169C82.3408 19.1169 81.2809 17.9687 79.6028 17.9687C79.6028 17.9687 78.0131 17.9687 76.8649 19.0286C76.8649 19.0286 75.7167 20.1768 75.7167 21.9432V30.5986H74.127V16.9089H75.7167V18.2337Z" fill="white"/>
<path d="M71.124 16.9087V30.5984H69.5342V16.9087H71.124Z" fill="white"/>
<path d="M106.188 8.69477L97.4439 18.1451L106.099 30.5983H104.068L96.2958 19.3816L94.706 21.0597V30.5983H93.1162V8.60645H94.706V18.5867L103.891 8.69477H106.188Z" fill="white"/>
<path d="M110.25 8.60645V30.5983H108.572V8.60645H110.25Z" fill="white"/>
<path d="M120.053 16.4663C117.05 16.4663 114.931 18.586 114.931 18.586C112.899 20.6174 112.899 23.7086 112.899 23.7086C112.899 26.7115 114.931 28.7429 114.931 28.7429C117.05 30.8626 120.053 30.8626 120.053 30.8626C124.646 30.8626 126.589 26.7998 126.589 26.7998L125.176 26.1816C123.586 29.2728 120.053 29.2728 120.053 29.2728C117.757 29.2728 116.167 27.683 116.167 27.683C114.489 26.0933 114.489 23.7969 114.489 23.7969H127.296V23.7086C127.296 20.6174 125.176 18.586 125.176 18.586C123.056 16.4663 120.053 16.4663 120.053 16.4663ZM120.053 17.9678C121.996 17.9678 123.498 19.2042 123.498 19.2042C124.999 20.3524 125.529 22.1188 125.529 22.1188H114.666C115.196 20.3524 116.609 19.2042 116.609 19.2042C118.199 17.9678 120.053 17.9678 120.053 17.9678Z" fill="white"/>
<path d="M129.769 9.66629C129.769 9.66629 129.769 8.60645 130.74 8.60645C130.74 8.60645 131.712 8.60645 131.712 9.66629C131.712 9.66629 131.712 10.6378 130.74 10.6378C130.74 10.6378 129.769 10.6378 129.769 9.66629Z" fill="white"/>
<path d="M136.305 16.9089V18.2337C136.305 18.2337 137.542 16.4673 140.191 16.4673C140.191 16.4673 142.487 16.4673 144.077 18.0571C144.077 18.0571 145.667 19.6468 145.667 21.9432V30.5986H143.989V21.9432C143.989 21.9432 143.989 20.2651 142.929 19.1169C142.929 19.1169 141.781 17.9687 140.191 17.9687C140.191 17.9687 138.513 17.9687 137.453 19.0286C137.453 19.0286 136.305 20.1768 136.305 21.9432V30.5986H134.627V16.9089H136.305Z" fill="white"/>
<path d="M131.536 16.9087V30.5984H129.946V16.9087H131.536Z" fill="white"/>
</svg>
