<?xml version="1.0" encoding="utf-8"?>
<!-- Generator: Adobe Illustrator 23.0.3, SVG Export Plug-In . SVG Version: 6.00 Build 0)  -->
<svg version="1.1" id="Layer_1" xmlns="http://www.w3.org/2000/svg" xmlns:xlink="http://www.w3.org/1999/xlink" x="0px" y="0px"
	 viewBox="0 0 111.91 99.54" style="enable-background:new 0 0 111.91 99.54;" xml:space="preserve">
<style type="text/css">
	.st0{fill:#772172;}
	.st1{fill:#ED3D0B;}
</style>
<g id="Group_5004" transform="translate(-78.629 -84.511)">
	<circle id="Ellipse_525" class="st0" cx="79.96" cy="182.72" r="1.33"/>
	<path id="Path_2827" class="st0" d="M85.96,181.39h-2c-0.74,0-1.33,0.6-1.33,1.33c0,0.74,0.6,1.33,1.33,1.33h2
		c0.74,0,1.33-0.6,1.33-1.33C87.29,181.98,86.69,181.39,85.96,181.39z"/>
	<path id="Path_2828" class="st0" d="M111.17,128.81c0,0.61,0.1,1.22,0.3,1.8c-2.04,1.27-3.28,3.49-3.3,5.89
		c0.01,1.63,0.59,3.21,1.64,4.45c-2.36,2.3-2.51,6.05-0.34,8.54c-0.18,0.56-0.26,1.15-0.26,1.74c0.03,2.78,1.93,5.19,4.62,5.86
		c0.56,2.7,2.8,4.72,5.54,5.01c1.19,2.44,3.67,3.99,6.39,3.96c4.02,0,7.41-3.17,7.41-6.92l0.08-36.57
		c-0.17-3.31-2.95-5.89-6.27-5.81c-1.78-0.01-3.47,0.78-4.6,2.15c-2.69,0.12-5.07,1.8-6.08,4.3
		C113.42,123.49,111.2,125.91,111.17,128.81z M114.2,130.19c-0.24-0.42-0.36-0.9-0.37-1.38c0.03-1.66,1.4-2.98,3.06-2.95
		c0.1,0,0.2,0.01,0.3,0.02c0.67,0.05,1.27-0.4,1.41-1.06c0.35-1.56,1.58-2.78,3.14-3.12c0.18,0.06,0.37,0.09,0.56,0.07
		c0.91-0.03,1.8,0.26,2.51,0.82c0.55,0.49,1.39,0.45,1.88-0.1s0.45-1.39-0.1-1.88c-0.35-0.32-0.74-0.59-1.16-0.8
		c0.48-0.25,1.01-0.38,1.55-0.38c1.84-0.05,3.41,1.32,3.61,3.14l-0.08,36.57c0,2.27-2.22,4.26-4.75,4.26
		c-1.53,0.01-2.95-0.77-3.76-2.07c2.87-1.38,4.08-4.82,2.7-7.69c-0.43-0.89-1.08-1.66-1.89-2.23c-0.6-0.43-1.43-0.29-1.86,0.31
		c-0.43,0.6-0.29,1.43,0.31,1.86l0,0c0.84,0.58,1.34,1.53,1.34,2.55c-0.05,1.81-1.55,3.23-3.36,3.19c-0.06,0-0.11,0.01-0.17,0.02
		c-1.56-0.4-2.66-1.79-2.69-3.4c-0.01-0.7-0.55-1.27-1.24-1.32c-1.81-0.1-3.23-1.58-3.27-3.39c0-0.51,0.12-1.02,0.35-1.47
		c0.28-0.55,0.14-1.22-0.33-1.61c-1.51-1.25-1.73-3.48-0.48-5c0.13-0.16,0.28-0.31,0.44-0.45c0.11,0.03,0.23,0.05,0.35,0.05
		c0.72,0,1.43,0.23,2.01,0.66l0.69,0.69c0.08,0.1,0.15,0.2,0.21,0.31c0.3,0.51,0.45,1.09,0.45,1.67c0,0.74,0.6,1.33,1.33,1.33
		c0.74,0,1.33-0.6,1.33-1.33l0,0c0-3.08-2.34-5.66-5.41-5.95c-0.05-0.06-0.1-0.11-0.16-0.15c-1.14-0.79-1.82-2.09-1.82-3.48
		c0.02-1.41,0.73-2.73,1.9-3.52c0.37-0.09,0.75-0.14,1.12-0.14c2.24,0,4.06,1.49,4.06,3.33c0,0.74,0.6,1.33,1.33,1.33
		c0.74,0,1.33-0.6,1.33-1.33C120.58,132.97,117.75,130.36,114.2,130.19z"/>
	<path id="Path_2829" class="st0" d="M135.92,122.59l0.08,36.56c0,3.75,3.39,6.92,7.41,6.92c2.72,0.02,5.2-1.52,6.39-3.96
		c2.74-0.29,4.98-2.31,5.54-5.01c2.7-0.68,4.6-3.09,4.62-5.86c0-0.59-0.09-1.18-0.26-1.74c2.17-2.48,2.02-6.23-0.34-8.54
		c1.06-1.24,1.64-2.82,1.64-4.45c-0.02-2.4-1.26-4.62-3.3-5.89c0.2-0.58,0.3-1.19,0.3-1.8c-0.03-2.9-2.24-5.31-5.13-5.58
		c-1.01-2.5-3.38-4.18-6.08-4.3c-1.13-1.37-2.82-2.16-4.6-2.15C138.87,116.7,136.09,119.27,135.92,122.59z M142.19,119.44
		c0.54,0,1.07,0.13,1.55,0.38c-0.42,0.21-0.81,0.48-1.16,0.8c-0.55,0.49-0.59,1.34-0.1,1.88s1.34,0.59,1.88,0.1
		c0.71-0.57,1.61-0.86,2.52-0.82c0.18,0.01,0.37-0.01,0.54-0.07c1.57,0.34,2.79,1.56,3.14,3.12c0.13,0.66,0.74,1.11,1.41,1.06
		c0.1-0.01,0.2-0.02,0.3-0.02c1.66-0.03,3.03,1.29,3.06,2.95c0,0.49-0.13,0.96-0.37,1.38c-3.55,0.16-6.38,2.78-6.38,5.98
		c0,0.74,0.6,1.33,1.33,1.33s1.33-0.6,1.33-1.33c0-1.84,1.82-3.33,4.06-3.33c0.38,0,0.76,0.05,1.12,0.14
		c1.17,0.79,1.88,2.1,1.9,3.52c0,1.39-0.68,2.68-1.82,3.48c-0.06,0.05-0.11,0.1-0.16,0.15c-1.91,0.19-3.62,1.28-4.6,2.94
		c-0.53,0.92-0.82,1.96-0.82,3.02c0,0.74,0.6,1.33,1.33,1.33c0.74,0,1.33-0.6,1.33-1.33c0-0.59,0.16-1.16,0.45-1.67
		c0.06-0.11,0.14-0.21,0.21-0.31l0.69-0.68c0.58-0.43,1.29-0.66,2.01-0.66c0.12,0,0.24-0.02,0.35-0.05c1.49,1.27,1.68,3.51,0.41,5
		c-0.14,0.16-0.29,0.31-0.45,0.44c-0.47,0.4-0.61,1.06-0.33,1.61c0.23,0.46,0.35,0.96,0.35,1.47c-0.04,1.81-1.46,3.29-3.27,3.39
		c-0.69,0.05-1.23,0.62-1.24,1.32c-0.04,1.61-1.14,3-2.69,3.4c-0.06-0.01-0.11-0.02-0.17-0.02c-1.81,0.04-3.31-1.38-3.36-3.19
		c0-1.02,0.5-1.97,1.34-2.55c0.6-0.43,0.74-1.26,0.31-1.86c-0.43-0.6-1.26-0.74-1.86-0.31l0,0c-2.61,1.83-3.24,5.42-1.41,8.03
		c0.57,0.81,1.33,1.46,2.23,1.89c-0.81,1.3-2.23,2.08-3.76,2.07c-2.53,0-4.75-1.99-4.75-4.26l-0.08-36.56
		C138.79,120.76,140.35,119.39,142.19,119.44L142.19,119.44z"/>
	<path id="Path_2830" class="st0" d="M134.58,109.44c2.94,0,5.33-2.39,5.33-5.33c0-2.94-2.39-5.33-5.33-5.33
		c-2.94,0-5.33,2.39-5.33,5.33C129.25,107.06,131.64,109.44,134.58,109.44C134.58,109.44,134.58,109.44,134.58,109.44z
		 M134.58,101.45c1.47,0,2.66,1.19,2.66,2.67s-1.19,2.66-2.67,2.66c-1.47,0-2.66-1.19-2.66-2.66
		C131.92,102.64,133.11,101.45,134.58,101.45L134.58,101.45z"/>
	<path id="Path_2831" class="st0" d="M166.56,141.42c0,2.94,2.39,5.33,5.33,5.33c2.94,0,5.33-2.39,5.33-5.33
		c0-2.94-2.39-5.33-5.33-5.33C168.94,136.09,166.56,138.47,166.56,141.42C166.56,141.42,166.56,141.42,166.56,141.42z
		 M171.89,138.75c1.47,0,2.67,1.19,2.67,2.66c0,1.47-1.19,2.67-2.66,2.67c-1.47,0-2.67-1.19-2.67-2.66c0,0,0,0,0,0
		C169.22,139.95,170.42,138.76,171.89,138.75z"/>
	<path id="Path_2832" class="st0" d="M97.28,146.75c2.94,0,5.33-2.39,5.33-5.33c0-2.94-2.39-5.33-5.33-5.33
		c-2.94,0-5.33,2.39-5.33,5.33C91.95,144.36,94.34,146.75,97.28,146.75C97.28,146.75,97.28,146.75,97.28,146.75z M97.28,138.75
		c1.47,0,2.67,1.19,2.67,2.66s-1.19,2.67-2.66,2.67c-1.47,0-2.67-1.19-2.67-2.66c0,0,0,0,0,0
		C94.62,139.95,95.81,138.76,97.28,138.75L97.28,138.75z"/>
	<path id="Path_2833" class="st1" d="M160.96,173.12c2.94,0,5.33-2.39,5.33-5.33c0-2.94-2.39-5.33-5.33-5.33
		c-2.94,0-5.33,2.39-5.33,5.33c0,1.41,0.56,2.77,1.56,3.77C158.19,172.57,159.55,173.13,160.96,173.12z M159.08,165.91
		c1.04-1.04,2.73-1.04,3.77,0c1.04,1.04,1.04,2.73,0,3.77c-1.04,1.04-2.73,1.04-3.77,0c-0.5-0.5-0.78-1.18-0.78-1.88
		C158.29,167.09,158.57,166.41,159.08,165.91L159.08,165.91z"/>
	<path id="Path_2834" class="st1" d="M108.21,120.37c2.94,0,5.33-2.39,5.33-5.33c0-2.94-2.39-5.33-5.33-5.33
		c-2.94,0-5.33,2.39-5.33,5.33c0,1.41,0.56,2.77,1.56,3.77C105.44,119.81,106.79,120.37,108.21,120.37z M106.32,113.16
		c1.04-1.04,2.73-1.04,3.77,0c1.04,1.04,1.04,2.73,0,3.77c-1.04,1.04-2.73,1.04-3.77,0c0,0,0,0,0,0c-1.04-1.03-1.05-2.7-0.02-3.74
		C106.31,113.17,106.31,113.16,106.32,113.16z"/>
	<path id="Path_2835" class="st1" d="M108.21,173.12c2.94,0,5.33-2.39,5.33-5.33c0-2.94-2.39-5.33-5.33-5.33
		c-2.94,0-5.33,2.39-5.33,5.33c0,1.41,0.56,2.77,1.56,3.77C105.44,172.57,106.79,173.13,108.21,173.12z M106.32,165.91
		c1.04-1.04,2.73-1.04,3.77,0c1.04,1.04,1.04,2.73,0,3.77c-1.04,1.04-2.73,1.04-3.77,0c-0.5-0.5-0.78-1.18-0.78-1.88
		C105.54,167.09,105.82,166.41,106.32,165.91z"/>
	<path id="Path_2836" class="st0" d="M118.99,108.86c0.19,0,0.38-0.04,0.56-0.12c0.19-0.09,0.39-0.18,0.58-0.26
		c0.67-0.3,0.98-1.08,0.68-1.76c-0.3-0.67-1.08-0.98-1.76-0.68c-0.21,0.09-0.42,0.19-0.62,0.28c-0.67,0.31-0.96,1.1-0.65,1.77
		C118,108.55,118.47,108.85,118.99,108.86L118.99,108.86z"/>
	<path id="Path_2837" class="st0" d="M123.96,106.98c0.13,0,0.26-0.02,0.38-0.06c0.2-0.06,0.41-0.12,0.62-0.18
		c0.71-0.2,1.13-0.93,0.93-1.64c-0.2-0.71-0.93-1.13-1.64-0.93c-0.22,0.06-0.44,0.12-0.66,0.19c-0.71,0.21-1.11,0.95-0.9,1.65
		C122.85,106.59,123.37,106.98,123.96,106.98L123.96,106.98z"/>
	<path id="Path_2838" class="st0" d="M153.93,111.09l0.07,0.04c0.36-0.64,0.8-1.22,1.31-1.74c0.12-0.12,0.25-0.23,0.38-0.34
		c-0.11-0.07-0.21-0.14-0.32-0.21c-0.62-0.4-1.44-0.23-1.84,0.39s-0.23,1.44,0.39,1.84C153.92,111.08,153.92,111.08,153.93,111.09
		L153.93,111.09z"/>
	<path id="Path_2839" class="st0" d="M119.1,173.89c-0.65-0.35-1.46-0.1-1.8,0.55c-0.35,0.65-0.1,1.46,0.55,1.8
		c0.03,0.02,0.07,0.03,0.1,0.05c0.21,0.1,0.42,0.2,0.63,0.29c0.68,0.28,1.46-0.05,1.74-0.73c0.26-0.64-0.01-1.38-0.63-1.69
		C119.49,174.08,119.29,173.99,119.1,173.89z"/>
	<path id="Path_2840" class="st0" d="M123.87,175.77c-0.7-0.22-1.45,0.17-1.67,0.88c-0.22,0.7,0.17,1.45,0.88,1.67
		c0.22,0.07,0.44,0.13,0.66,0.2c0.71,0.21,1.45-0.2,1.65-0.91s-0.2-1.45-0.91-1.65C124.28,175.89,124.08,175.83,123.87,175.77z"/>
	<path id="Path_2841" class="st0" d="M102.11,162.36c0.04,0.05,0.08,0.1,0.12,0.14c0.11-0.12,0.21-0.24,0.32-0.36
		c0.52-0.52,1.1-0.96,1.74-1.31c-0.1-0.15-0.2-0.31-0.29-0.46c-0.39-0.62-1.21-0.82-1.83-0.43s-0.82,1.21-0.43,1.83
		C101.86,161.97,101.99,162.17,102.11,162.36z"/>
	<path id="Path_2842" class="st0" d="M114.45,174.16c0.74,0,1.33-0.59,1.33-1.33c0-0.45-0.23-0.88-0.61-1.12l0,0
		c-0.36,0.64-0.8,1.22-1.31,1.74c-0.12,0.12-0.25,0.23-0.37,0.34c0.08,0.05,0.17,0.11,0.25,0.16
		C113.95,174.09,114.2,174.16,114.45,174.16z"/>
	<path id="Path_2843" class="st0" d="M99.46,157.53c0.31,0.67,1.1,0.96,1.77,0.65c0.67-0.31,0.96-1.1,0.65-1.77
		c-0.09-0.19-0.18-0.39-0.26-0.58c-0.3-0.67-1.08-0.98-1.76-0.69c-0.67,0.3-0.98,1.08-0.69,1.76l0,0
		C99.27,157.12,99.36,157.33,99.46,157.53z"/>
	<path id="Path_2844" class="st0" d="M100.08,151.62c-0.06-0.2-0.12-0.41-0.18-0.62c-0.2-0.71-0.93-1.13-1.64-0.93
		c-0.71,0.2-1.13,0.93-0.93,1.64c0.06,0.22,0.12,0.44,0.19,0.66c0.21,0.71,0.95,1.11,1.65,0.9S100.29,152.33,100.08,151.62z"/>
	<path id="Path_2845" class="st0" d="M102.43,122.44c0.62,0.4,1.44,0.22,1.84-0.4c0,0,0,0,0,0l0.02-0.04
		c-0.64-0.35-1.22-0.8-1.74-1.31c-0.12-0.12-0.23-0.25-0.34-0.38c-0.06,0.1-0.12,0.19-0.19,0.29
		C101.63,121.22,101.81,122.05,102.43,122.44z"/>
	<path id="Path_2846" class="st0" d="M100.06,127.21c0.67,0.3,1.46,0.01,1.76-0.66c0,0,0,0,0,0c0.09-0.2,0.18-0.39,0.27-0.58
		c0.32-0.66,0.03-1.46-0.63-1.78s-1.46-0.03-1.78,0.63c-0.1,0.21-0.2,0.42-0.29,0.63C99.09,126.12,99.39,126.91,100.06,127.21
		C100.06,127.21,100.06,127.21,100.06,127.21z"/>
	<path id="Path_2847" class="st0" d="M98.38,132.27c0.71,0.21,1.44-0.2,1.65-0.9c0,0,0,0,0,0c0.06-0.21,0.12-0.41,0.18-0.61
		c0.22-0.7-0.17-1.45-0.88-1.67c-0.7-0.22-1.45,0.17-1.67,0.88l0,0c-0.07,0.22-0.13,0.44-0.2,0.66
		C97.27,131.32,97.68,132.06,98.38,132.27z"/>
	<path id="Path_2848" class="st0" d="M115.17,111.13c0.14-0.09,0.28-0.18,0.43-0.27c0.62-0.39,0.82-1.21,0.43-1.84
		s-1.21-0.82-1.84-0.43c-0.19,0.12-0.39,0.24-0.58,0.37c-0.04,0.03-0.08,0.06-0.11,0.09c0.12,0.11,0.25,0.21,0.37,0.33
		C114.37,109.91,114.81,110.49,115.17,111.13z"/>
	<path id="Path_2849" class="st0" d="M149.42,108.64c0.2,0.09,0.39,0.18,0.59,0.27c0.66,0.32,1.46,0.03,1.77-0.63
		c0.32-0.66,0.03-1.46-0.63-1.77l0,0c-0.21-0.1-0.42-0.2-0.62-0.29c-0.67-0.31-1.46-0.03-1.77,0.64c-0.31,0.67-0.03,1.46,0.64,1.77
		C149.4,108.63,149.41,108.63,149.42,108.64L149.42,108.64z"/>
	<path id="Path_2850" class="st0" d="M144.6,106.86c0.21,0.06,0.41,0.12,0.61,0.18c0.7,0.22,1.45-0.16,1.67-0.86
		c0.22-0.7-0.16-1.45-0.86-1.67c-0.01,0-0.01,0-0.02-0.01c-0.22-0.07-0.44-0.13-0.66-0.2c-0.71-0.2-1.45,0.2-1.65,0.91
		C143.49,105.92,143.9,106.65,144.6,106.86L144.6,106.86L144.6,106.86z"/>
	<path id="Path_2851" class="st0" d="M149.55,174.14c-0.19,0.09-0.39,0.18-0.58,0.26c-0.67,0.29-0.98,1.08-0.69,1.75
		s1.08,0.98,1.75,0.69c0.21-0.09,0.42-0.19,0.63-0.28c0.67-0.31,0.96-1.1,0.66-1.77C151.01,174.12,150.22,173.83,149.55,174.14
		L149.55,174.14L149.55,174.14z"/>
	<path id="Path_2852" class="st0" d="M165.12,122.4c0.39,0.62,1.21,0.82,1.84,0.43c0.62-0.39,0.82-1.21,0.43-1.84
		c-0.12-0.2-0.25-0.39-0.37-0.58c-0.02-0.03-0.05-0.05-0.07-0.08c-0.11,0.12-0.21,0.25-0.33,0.37c-0.52,0.52-1.1,0.96-1.74,1.31
		C164.95,122.14,165.04,122.27,165.12,122.4z"/>
	<path id="Path_2853" class="st0" d="M169.07,131.14c0.06,0.2,0.12,0.41,0.18,0.62c0.2,0.71,0.93,1.12,1.64,0.93
		s1.12-0.93,0.93-1.64c-0.06-0.22-0.12-0.44-0.19-0.66c-0.21-0.71-0.95-1.11-1.66-0.9C169.26,129.69,168.86,130.44,169.07,131.14z"
		/>
	<path id="Path_2854" class="st0" d="M167.26,126.35c0.09,0.19,0.18,0.39,0.26,0.58c0.3,0.67,1.08,0.98,1.76,0.68
		c0.67-0.3,0.98-1.08,0.68-1.76c-0.09-0.21-0.19-0.42-0.28-0.63c-0.31-0.67-1.1-0.96-1.77-0.65S166.95,125.68,167.26,126.35
		L167.26,126.35L167.26,126.35z"/>
	<path id="Path_2855" class="st0" d="M154,171.71c-0.16,0.1-0.33,0.21-0.49,0.31c-0.63,0.38-0.84,1.19-0.47,1.83
		c0.38,0.63,1.19,0.84,1.83,0.47c0.01-0.01,0.03-0.02,0.04-0.02c0.2-0.12,0.39-0.24,0.58-0.37c0.06-0.04,0.12-0.09,0.18-0.14
		c-0.12-0.11-0.24-0.21-0.36-0.33C154.79,172.93,154.35,172.34,154,171.71z"/>
	<path id="Path_2856" class="st0" d="M166.95,162.52c0.05-0.07,0.1-0.14,0.14-0.22c0.39-0.62,0.21-1.44-0.41-1.84
		c-0.6-0.38-1.4-0.22-1.81,0.37c0.64,0.35,1.22,0.8,1.74,1.31C166.73,162.27,166.84,162.39,166.95,162.52z"/>
	<path id="Path_2857" class="st0" d="M144.75,175.93c-0.21,0.06-0.41,0.12-0.62,0.18c-0.71,0.2-1.13,0.93-0.93,1.64
		s0.93,1.13,1.64,0.93c0.22-0.06,0.44-0.12,0.66-0.19c0.71-0.21,1.11-0.95,0.9-1.65C146.2,176.13,145.46,175.72,144.75,175.93
		L144.75,175.93L144.75,175.93z"/>
	<path id="Path_2858" class="st0" d="M171.47,152.96c0.07-0.22,0.13-0.44,0.2-0.66c0.21-0.71-0.2-1.45-0.9-1.65
		c-0.71-0.21-1.45,0.2-1.65,0.9l0,0c-0.06,0.21-0.12,0.41-0.19,0.61c-0.22,0.7,0.17,1.45,0.88,1.67
		C170.5,154.05,171.25,153.66,171.47,152.96L171.47,152.96L171.47,152.96z"/>
	<path id="Path_2859" class="st0" d="M168.24,158.85c0.51,0,0.98-0.3,1.2-0.76c0.1-0.21,0.2-0.42,0.29-0.62
		c0.31-0.67,0.01-1.46-0.66-1.77s-1.46-0.01-1.77,0.66l0,0c-0.09,0.2-0.18,0.39-0.27,0.58c-0.32,0.66-0.04,1.46,0.63,1.78
		C167.85,158.8,168.04,158.84,168.24,158.85L168.24,158.85z"/>
	<path id="Path_2860" class="st1" d="M157.19,118.81c2.08,2.08,5.46,2.08,7.54,0c2.08-2.08,2.08-5.46,0-7.54s-5.46-2.08-7.54,0
		c0,0,0,0,0,0c-2.08,2.07-2.09,5.43-0.02,7.51C157.18,118.79,157.18,118.8,157.19,118.81z M159.08,113.16
		c1.04-1.04,2.73-1.04,3.77,0c1.04,1.04,1.04,2.73,0,3.77c-1.04,1.04-2.73,1.04-3.77,0c0,0,0,0,0,0c-1.04-1.03-1.05-2.7-0.02-3.74
		C159.06,113.17,159.07,113.17,159.08,113.16L159.08,113.16z"/>
	<path id="Path_2861" class="st1" d="M128.17,126.58c0.17-0.72-0.27-1.44-0.98-1.61s-1.44,0.27-1.61,0.98
		c-0.48,1.78-2.31,2.84-4.09,2.37c-0.71-0.19-1.33-0.6-1.78-1.18c-0.45-0.58-1.28-0.69-1.87-0.25c-0.58,0.45-0.69,1.28-0.25,1.87
		l0,0c2.02,2.62,5.79,3.11,8.42,1.09C127.08,129.03,127.84,127.88,128.17,126.58L128.17,126.58z"/>
	<path id="Path_2862" class="st1" d="M118,147.68c-1.54,0.99-2.22,2.89-1.66,4.63c0.2,0.71,0.94,1.12,1.65,0.92
		c0.71-0.2,1.12-0.94,0.92-1.65c-0.01-0.02-0.01-0.05-0.02-0.07c-0.19-0.59,0.03-1.23,0.55-1.58c0.32-0.21,0.72-0.25,1.08-0.1
		c0.68,0.28,1.46-0.05,1.74-0.74c0.28-0.68-0.05-1.46-0.74-1.73C120.36,146.9,119.05,147.02,118,147.68z"/>
	<path id="Path_2863" class="st1" d="M125.11,133.09c-0.74,0-1.33,0.6-1.33,1.33s0.6,1.33,1.33,1.33l0,0c0.55,0,1,0.45,1,1
		s-0.45,1-1,1c-0.74,0-1.33,0.6-1.33,1.33c0,0.74,0.6,1.33,1.33,1.33c2.02,0.03,3.69-1.58,3.72-3.6s-1.58-3.69-3.6-3.72
		C125.19,133.09,125.15,133.09,125.11,133.09L125.11,133.09z"/>
	<path id="Path_2864" class="st1" d="M127.46,145.08c0.74,0,1.33-0.6,1.33-1.33c0-0.74-0.6-1.33-1.33-1.33
		c-2.02,0-3.66,1.64-3.66,3.66s1.64,3.66,3.66,3.66c0.74,0,1.33-0.6,1.33-1.33c0-0.74-0.6-1.33-1.33-1.33c-0.55,0-1-0.45-1-1
		S126.91,145.08,127.46,145.08L127.46,145.08z"/>
	<path id="Path_2865" class="st1" d="M146.8,131.09c1.86,0.01,3.63-0.85,4.76-2.33c0.45-0.58,0.34-1.42-0.24-1.87
		c-0.58-0.45-1.42-0.34-1.87,0.25l0,0c-1.13,1.46-3.23,1.72-4.68,0.59c-0.58-0.45-0.99-1.07-1.18-1.78
		c-0.17-0.72-0.89-1.15-1.61-0.98s-1.15,0.89-0.98,1.61C141.65,129.25,144.06,131.11,146.8,131.09z"/>
	<path id="Path_2866" class="st1" d="M146.92,149.1c0.28,0.68,1.05,1.01,1.73,0.74c0.35-0.15,0.76-0.11,1.08,0.1
		c0.51,0.34,0.73,0.99,0.54,1.57c-0.24,0.7,0.13,1.45,0.82,1.69c0.7,0.24,1.45-0.13,1.69-0.82c0.01-0.02,0.02-0.05,0.02-0.07
		c0.56-1.74-0.12-3.64-1.65-4.63c-1.05-0.67-2.36-0.79-3.51-0.32C146.98,147.63,146.65,148.41,146.92,149.1
		C146.92,149.09,146.92,149.09,146.92,149.1z"/>
	<path id="Path_2867" class="st1" d="M144.05,140.42c0.74,0,1.33-0.6,1.33-1.33c0-0.74-0.6-1.33-1.33-1.33l0,0c-0.55,0-1-0.45-1-1
		s0.45-1,1-1c0.74,0,1.33-0.6,1.33-1.33s-0.6-1.33-1.33-1.33c-2.02-0.03-3.69,1.58-3.72,3.6s1.58,3.69,3.6,3.72
		C143.97,140.42,144.01,140.42,144.05,140.42L144.05,140.42z"/>
	<path id="Path_2868" class="st1" d="M141.7,147.08c-0.74,0-1.33,0.6-1.33,1.33c0,0.74,0.6,1.33,1.33,1.33
		c2.02,0,3.66-1.64,3.66-3.66s-1.64-3.66-3.66-3.66c-0.74,0-1.33,0.6-1.33,1.33c0,0.74,0.6,1.33,1.33,1.33c0.55,0,1,0.45,1,1
		S142.26,147.08,141.7,147.08L141.7,147.08z"/>
	<path id="Path_2869" class="st0" d="M185.21,181.39h-2c-0.74,0-1.33,0.6-1.33,1.33c0,0.74,0.6,1.33,1.33,1.33h2
		c0.74,0,1.33-0.6,1.33-1.33C186.54,181.98,185.94,181.39,185.21,181.39z"/>
	<circle id="Ellipse_526" class="st0" cx="189.21" cy="182.72" r="1.33"/>
	<path id="Path_2870" class="st0" d="M179.03,181.39h-39.84c1.48-2.55,0.61-5.81-1.94-7.28s-5.81-0.61-7.28,1.94
		c-0.96,1.65-0.96,3.69,0,5.34H90.14c-0.74-0.1-1.41,0.42-1.51,1.16c-0.1,0.74,0.42,1.41,1.16,1.51c0.12,0.02,0.23,0.02,0.35,0
		h88.89c0.74,0.1,1.41-0.42,1.51-1.16c0.1-0.74-0.42-1.41-1.16-1.51C179.26,181.37,179.14,181.37,179.03,181.39z M131.92,178.72
		c0-1.47,1.19-2.66,2.67-2.66s2.66,1.19,2.66,2.67c0,1.47-1.19,2.66-2.66,2.66C133.11,181.38,131.92,180.19,131.92,178.72z"/>
	<g id="Group_5004-2" transform="translate(90.576 84.511)">
		<path id="Path_2871" class="st0" d="M35.79,9.92c1.1,0,2-0.9,2-2s-0.9-2-2-2c-1.1,0-2,0.89-2,2C33.79,9.02,34.68,9.92,35.79,9.92z
			 M35.79,6.92c0.55,0,1,0.45,1,1s-0.45,1-1,1s-1-0.45-1-1C34.79,7.36,35.23,6.91,35.79,6.92C35.79,6.91,35.79,6.91,35.79,6.92
			L35.79,6.92z"/>
		<path id="Path_2872" class="st0" d="M82.87,13.4c-0.74,0-1.34,0.6-1.34,1.34s0.6,1.34,1.34,1.34s1.34-0.6,1.34-1.34
			C84.21,13.99,83.61,13.4,82.87,13.4z M82.87,15.4c-0.37,0-0.67-0.3-0.67-0.67s0.3-0.67,0.67-0.67s0.67,0.3,0.67,0.67l0,0
			C83.54,15.1,83.24,15.4,82.87,15.4z"/>
		<path id="Path_2873" class="st0" d="M5.35,0.24c-0.74,0-1.34,0.6-1.34,1.34s0.6,1.34,1.34,1.34c0.74,0,1.34-0.6,1.34-1.34
			C6.68,0.84,6.09,0.24,5.35,0.24z M5.35,2.24c-0.37,0-0.67-0.3-0.67-0.67s0.3-0.67,0.67-0.67s0.67,0.3,0.67,0.67l0,0
			C6.01,1.94,5.72,2.24,5.35,2.24z"/>
		<path id="Path_2874" class="st0" d="M80.08,0c-0.74,0-1.34,0.6-1.34,1.34s0.6,1.34,1.34,1.34c0.74,0,1.34-0.6,1.34-1.34
			C81.41,0.6,80.82,0,80.08,0z M80.08,2c-0.37,0-0.67-0.3-0.67-0.67s0.3-0.67,0.67-0.67s0.67,0.3,0.67,0.67l0,0
			C80.75,1.7,80.45,2,80.08,2C80.08,2,80.08,2,80.08,2L80.08,2z"/>
		<path id="Path_2875" class="st0" d="M2.67,33.22c0-0.74-0.6-1.34-1.34-1.34S0,32.48,0,33.22s0.6,1.34,1.34,1.34
			C2.07,34.56,2.67,33.96,2.67,33.22z M0.67,33.22c0-0.37,0.3-0.67,0.67-0.67s0.67,0.3,0.67,0.67s-0.3,0.67-0.67,0.67l0,0
			C0.97,33.89,0.67,33.59,0.67,33.22C0.67,33.22,0.67,33.22,0.67,33.22L0.67,33.22z"/>
	</g>
	<circle id="Ellipse_527" class="st1" cx="85.57" cy="102.74" r="1.64"/>
	<circle id="Ellipse_528" class="st1" cx="106.1" cy="97.15" r="0.92"/>
	<circle id="Ellipse_529" class="st1" cx="153.02" cy="96.02" r="1.58"/>
	<circle id="Ellipse_530" class="st1" cx="184.47" cy="114.9" r="1.82"/>
</g>
</svg>
