<?xml version="1.0" encoding="utf-8"?>
<!-- Generator: Adobe Illustrator 23.0.3, SVG Export Plug-In . SVG Version: 6.00 Build 0)  -->
<svg version="1.1" xmlns="http://www.w3.org/2000/svg" xmlns:xlink="http://www.w3.org/1999/xlink" x="0px" y="0px"
	 viewBox="0 0 636.11 559.02" style="enable-background:new 0 0 636.11 559.02;" xml:space="preserve">
<style type="text/css">
	.st0{fill:#ED3D0B;}
	.st1{fill:#772172;}
	.st2{fill:#F84B01;}
	.st3{fill:none;}
	.st4{fill:#EC3F24;}
	.st5{fill:none;stroke:#772172;stroke-width:9;stroke-linecap:round;stroke-miterlimit:10;}
</style>
<g id="Layer_1">
</g>
<g id="Layer_2">
	<path class="st1" d="M430.75,69.29c6.25,0,11.33-5.08,11.33-11.33S437,46.63,430.75,46.63c-6.25,0-11.33,5.08-11.33,11.33
		S424.51,69.29,430.75,69.29z M430.75,52.3c3.12,0,5.67,2.54,5.67,5.67c0,3.12-2.54,5.67-5.67,5.67s-5.67-2.54-5.67-5.67
		C425.09,54.84,427.63,52.3,430.75,52.3z"/>
	<path class="st1" d="M551.61,114.4c-4.16,0-7.55,3.39-7.55,7.55c0,4.16,3.39,7.55,7.55,7.55c4.16,0,7.55-3.39,7.55-7.55
		C559.16,117.78,555.77,114.4,551.61,114.4z M551.61,125.73c-2.08,0-3.78-1.69-3.78-3.78c0-2.08,1.69-3.78,3.78-3.78
		s3.78,1.69,3.78,3.78C555.39,124.03,553.69,125.73,551.61,125.73z"/>
	<path class="st1" d="M371.48,136.02c-4.16,0-7.55,3.39-7.55,7.55c0,4.16,3.39,7.55,7.55,7.55s7.55-3.39,7.55-7.55
		C379.03,139.41,375.64,136.02,371.48,136.02z M371.48,147.35c-2.08,0-3.78-1.69-3.78-3.78s1.69-3.78,3.78-3.78
		c2.08,0,3.78,1.69,3.78,3.78S373.56,147.35,371.48,147.35z"/>
	<path class="st1" d="M598.08,22.72c-4.16,0-7.55,3.39-7.55,7.55c0,4.16,3.39,7.55,7.55,7.55c4.16,0,7.55-3.39,7.55-7.55
		C605.63,26.1,602.25,22.72,598.08,22.72z M598.08,34.05c-2.08,0-3.78-1.69-3.78-3.78c0-2.08,1.69-3.78,3.78-3.78
		s3.78,1.69,3.78,3.78C601.86,32.35,600.16,34.05,598.08,34.05z"/>
	<path class="st1" d="M206.45,102.59c0-4.16-3.39-7.55-7.55-7.55c-4.16,0-7.55,3.39-7.55,7.55c0,4.16,3.39,7.55,7.55,7.55
		C203.06,110.15,206.45,106.76,206.45,102.59z M195.12,102.59c0-2.08,1.69-3.78,3.78-3.78c2.08,0,3.78,1.69,3.78,3.78
		c0,2.08-1.69,3.78-3.78,3.78C196.81,106.37,195.12,104.68,195.12,102.59z"/>
	<path class="st0" d="M521.4,188.89h-15.11c-4.17,0-7.55,3.38-7.55,7.55c0,4.17,3.38,7.55,7.55,7.55h15.11
		c4.17,0,7.55-3.38,7.55-7.55C528.95,192.28,525.57,188.89,521.4,188.89z"/>
	<path class="st1" d="M476.07,188.89h-15.11c-4.17,0-7.55,3.38-7.55,7.55c0,4.17,3.38,7.55,7.55,7.55h15.11
		c4.17,0,7.55-3.38,7.55-7.55C483.63,192.28,480.25,188.89,476.07,188.89z"/>
	<path class="st1" d="M302.52,386.35l-0.15,0.01c-2.05-6.08-4.84-11.79-8.35-17.07l0.03-0.04c7.14-8.08,6.38-20.47-1.74-27.65
		c-3.91-3.46-8.96-5.2-14.16-4.87c-5.22,0.32-10,2.65-13.46,6.57l-0.04,0.04c-5.65-2.81-11.72-4.9-17.95-6.19l-0.01-0.14
		c-0.68-10.74-9.92-18.95-20.79-18.28c-5.22,0.32-10,2.65-13.46,6.57c-3.46,3.91-5.19,8.94-4.87,14.16l0,0.07
		c-6.01,2.04-11.78,4.85-17.07,8.32l-0.07-0.06c-3.92-3.46-8.96-5.19-14.16-4.87c-5.22,0.32-10,2.66-13.45,6.57
		c-3.46,3.91-5.19,8.94-4.87,14.16c0.32,5.2,2.64,9.98,6.54,13.44c-2.81,5.67-4.86,11.67-6.14,17.93l-0.06,0
		c-5.22,0.32-10,2.65-13.46,6.57c-3.46,3.92-5.19,8.94-4.87,14.23c0.66,10.74,9.9,19.09,20.69,18.33l0.14-0.01
		c2.04,6.02,4.86,11.79,8.33,17.08l-0.06,0.06c-3.46,3.91-5.19,8.94-4.87,14.16c0.32,5.22,2.65,10,6.61,13.5
		c8.09,7.14,20.47,6.38,27.61-1.7l0.05-0.06c5.7,2.83,11.72,4.89,17.99,6.17l0.01,0.15c0.65,10.33,9.29,18.32,19.58,18.32
		c0.39,0,0.79-0.01,1.19-0.04c5.23-0.31,10.02-2.65,13.49-6.57c3.47-3.93,5.19-8.97,4.86-14.2l0-0.04
		c6.05-2.04,11.75-4.81,17.03-8.28l0.18,0.15c3.92,3.46,8.96,5.2,14.16,4.87c5.22-0.32,10-2.66,13.46-6.57
		c3.46-3.91,5.19-8.94,4.87-14.16c-0.32-5.22-2.65-10-6.57-13.45l-0.1-0.09c2.79-5.67,4.88-11.74,6.17-17.95l0.05,0
		c5.23-0.31,10.02-2.64,13.5-6.57c3.47-3.92,5.2-8.97,4.86-14.27C322.53,393.92,313.25,385.67,302.52,386.35z M307.02,408.91
		c-0.79,0.89-1.88,1.42-3.08,1.5l-6.07,0.36c-3.65,0.21-6.62,3.01-7.05,6.64c-1,8.39-3.83,16.61-8.17,23.78
		c-1.89,3.12-1.28,7.15,1.46,9.57l4.62,4.08c0.89,0.79,1.42,1.88,1.5,3.06c0.07,1.19-0.32,2.33-1.11,3.22c0,0,0,0,0,0
		c-0.79,0.89-1.87,1.42-3.06,1.49c-1.2,0.09-2.33-0.32-3.23-1.11l-4.7-4.15c-2.74-2.42-6.82-2.53-9.68-0.27
		c-6.63,5.23-14.22,8.92-22.56,10.98c-3.55,0.87-5.96,4.16-5.73,7.82l0.39,6.07c0.08,1.19-0.32,2.34-1.11,3.23
		c-0.79,0.9-1.88,1.43-3.15,1.5c-2.42,0.1-4.56-1.73-4.71-4.17l-0.39-6.16c-0.23-3.64-3.02-6.59-6.64-7.02
		c-8.53-1.02-16.53-3.77-23.78-8.17c-1.22-0.74-2.57-1.1-3.92-1.1c-2.11,0-4.18,0.88-5.66,2.55l-4.05,4.58
		c-1.62,1.84-4.45,2.01-6.33,0.35c-0.89-0.79-1.42-1.88-1.5-3.06c-0.07-1.19,0.32-2.33,1.11-3.22l4.05-4.58
		c2.42-2.74,2.54-6.81,0.27-9.68c-5.19-6.59-9-14.4-11.02-22.6c-0.87-3.54-4.14-5.99-7.78-5.73l-6.14,0.37
		c-2.4,0.1-4.56-1.73-4.72-4.24c-0.15-2.46,1.72-4.57,4.18-4.72l6.08-0.37c3.64-0.22,6.61-3.02,7.04-6.64
		c1.02-8.53,3.76-16.52,8.14-23.74c1.9-3.12,1.28-7.16-1.45-9.57l-4.5-3.98c-0.89-0.79-1.42-1.88-1.5-3.06
		c-0.07-1.19,0.32-2.33,1.11-3.23c0.79-0.89,1.87-1.42,3.06-1.49c1.2-0.11,2.33,0.32,3.22,1.11l4.58,4.05
		c2.74,2.43,6.81,2.53,9.68,0.28c6.59-5.19,14.4-9,22.61-11.03c3.54-0.87,5.95-4.15,5.73-7.79l-0.37-6.08
		c-0.15-2.46,1.72-4.57,4.24-4.73c2.45-0.11,4.57,1.72,4.72,4.17l0.39,6.14c0.23,3.63,3.02,6.59,6.64,7.02
		c8.41,1,16.61,3.84,23.71,8.19c3.13,1.91,7.18,1.31,9.61-1.43l4.05-4.58c0.79-0.89,1.88-1.42,3.07-1.5
		c1.21-0.09,2.33,0.32,3.27,1.14c1.84,1.63,2.01,4.45,0.39,6.29l-4.05,4.58c-2.43,2.75-2.54,6.85-0.25,9.72
		c5.26,6.58,8.97,14.16,11.03,22.52c0.87,3.54,4.11,5.99,7.78,5.73l6.16-0.37c2.48-0.11,4.55,1.73,4.71,4.25
		C308.2,406.87,307.81,408.02,307.02,408.91z"/>
	<path class="st0" d="M255.49,372.82c-16.04-10.35-37.48-9.04-52.14,3.2c-11.1,9.26-16.96,22.76-16.08,37.02
		c0.88,14.26,8.34,26.94,20.49,34.77c7.22,4.66,15.53,6.95,23.83,6.95c10.14,0,20.25-3.43,28.31-10.16
		c11.09-9.26,16.96-22.75,16.08-37.01C275.1,393.33,267.64,380.65,255.49,372.82z M250.22,433.01c-9.48,7.91-23.89,8.8-34.27,2.11
		c-8.06-5.2-13.02-13.59-13.6-23c-0.58-9.42,3.32-18.35,10.68-24.5c5.22-4.36,11.95-6.58,18.66-6.58c5.47,0,10.94,1.48,15.6,4.48
		c8.06,5.2,13.02,13.59,13.6,23C261.48,417.93,257.58,426.86,250.22,433.01z"/>
	<path class="st1" d="M474.92,346.59l-0.15,0c-1.83-6.15-4.42-11.95-7.74-17.36l0.03-0.04c7.42-7.83,7.1-20.23-0.73-27.66
		c-0.04-0.04-0.09-0.08-0.15-0.13c-3.78-3.54-8.72-5.49-13.87-5.27c-5.22,0.14-10.08,2.3-13.68,6.09l-0.04,0.04
		c-5.56-3-11.55-5.31-17.73-6.82l-0.01-0.14c-0.3-10.76-9.33-19.22-20.14-19c-10.78,0.29-19.32,9.29-19.04,20.07l0,0.07
		c-6.08,1.83-11.94,4.44-17.35,7.72l-0.06-0.06c-7.82-7.42-20.23-7.1-27.66,0.73c-7.42,7.82-7.1,20.21,0.7,27.64
		c-3,5.57-5.27,11.49-6.76,17.7l-0.06,0c-5.22,0.14-10.08,2.3-13.68,6.09c-3.6,3.79-5.5,8.76-5.36,14.04
		c0.28,10.6,9,19.05,19.54,19.05c0.16,0,0.32,0,0.48-0.01l0.14,0c1.83,6.09,4.44,11.95,7.73,17.37l-0.06,0.06
		c-7.42,7.83-7.1,20.24,0.77,27.7c7.82,7.42,20.23,7.1,27.65-0.73l0.05-0.06c5.6,3.02,11.53,5.3,17.76,6.8l0.01,0.15
		c0.3,10.58,9.02,19.01,19.62,19.01c0.16,0,0.33,0,0.49-0.01c5.24-0.13,10.11-2.29,13.71-6.09c3.61-3.8,5.51-8.78,5.36-14.02v-0.04
		c6.12-1.82,11.91-4.39,17.31-7.68l0.17,0.16c3.79,3.6,8.74,5.58,13.98,5.36c5.22-0.14,10.08-2.3,13.68-6.09
		c7.42-7.83,7.1-20.23-0.73-27.66l-0.1-0.1c2.99-5.57,5.29-11.56,6.8-17.72l0.05,0c5.24-0.13,10.11-2.29,13.72-6.09
		c3.61-3.8,5.51-8.78,5.36-14.09C494.65,354.85,485.68,346.22,474.92,346.59z M478.63,369.29c-0.82,0.87-1.93,1.36-3.12,1.39
		l-6.08,0.15c-3.66,0.09-6.72,2.78-7.28,6.39c-1.3,8.35-4.41,16.46-9,23.48c-2,3.05-1.53,7.1,1.12,9.62l4.47,4.24
		c1.78,1.69,1.86,4.51,0.17,6.3c0,0,0,0,0,0c-0.82,0.87-1.93,1.36-3.11,1.39c-1.18,0.04-2.32-0.4-3.19-1.22l-4.55-4.31
		c-2.65-2.51-6.71-2.77-9.67-0.61c-6.81,4.99-14.52,8.42-22.93,10.18c-3.58,0.75-6.11,3.95-6,7.61l0.17,6.09
		c0.03,1.19-0.4,2.33-1.22,3.19c-0.82,0.86-1.93,1.36-3.2,1.39c-2.52,0.06-4.5-1.88-4.57-4.33l-0.18-6.17
		c-0.1-3.64-2.79-6.69-6.39-7.25c-8.48-1.32-16.38-4.34-23.47-9c-1.27-0.83-2.71-1.24-4.14-1.24c-2.02,0-4.01,0.8-5.48,2.35
		l-4.21,4.43c-1.69,1.79-4.52,1.86-6.34,0.13c-1.78-1.69-1.86-4.52-0.16-6.3l4.2-4.43c2.51-2.65,2.77-6.72,0.61-9.66
		c-4.96-6.77-8.49-14.71-10.22-22.97c-0.73-3.5-3.83-6-7.39-6c-0.06,0-0.12,0-0.18,0l-6.16,0.15c-0.04,0-0.07,0-0.11,0
		c-2.4,0-4.39-1.93-4.45-4.41c-0.03-1.19,0.4-2.32,1.22-3.18c0.82-0.86,1.93-1.35,3.12-1.39l6.09-0.16c3.65-0.1,6.7-2.78,7.26-6.39
		c1.32-8.5,4.34-16.38,8.96-23.44c2-3.05,1.53-7.11-1.12-9.62l-4.35-4.13c-1.78-1.69-1.86-4.52-0.17-6.3
		c1.69-1.78,4.52-1.86,6.3-0.17l4.43,4.21c2.65,2.52,6.72,2.77,9.67,0.62c6.76-4.96,14.71-8.49,22.98-10.23
		c3.57-0.75,6.1-3.94,6-7.59l-0.16-6.09c-0.06-2.46,1.88-4.51,4.4-4.57c2.52,0.01,4.5,1.88,4.57,4.33l0.18,6.15
		c0.1,3.64,2.79,6.69,6.39,7.25c8.37,1.3,16.47,4.42,23.41,9.02c3.06,2.02,7.12,1.56,9.65-1.1l4.21-4.43
		c0.82-0.87,1.93-1.36,3.11-1.39c1.18,0.01,2.32,0.4,3.18,1.22c0.03,0.03,0.07,0.06,0.1,0.09c1.72,1.7,1.77,4.48,0.1,6.24
		l-4.21,4.43c-2.53,2.66-2.77,6.76-0.59,9.7c5.03,6.76,8.47,14.47,10.23,22.9c0.75,3.56,3.96,6.11,7.57,6l6.18-0.15
		c2.46-0.06,4.49,1.88,4.56,4.41C479.88,367.29,479.45,368.43,478.63,369.29z"/>
	<path class="st0" d="M428.39,331.41c-15.66-10.9-37.14-10.34-52.21,1.37c-11.42,8.87-17.75,22.15-17.37,36.43
		c0.38,14.28,7.4,27.21,19.26,35.46c7.5,5.22,16.32,7.81,25.14,7.81c9.61,0,19.21-3.08,27.07-9.18
		c11.41-8.86,17.74-22.14,17.37-36.43C447.28,352.6,440.26,339.67,428.39,331.41z M421.02,391.38c-9.75,7.57-24.18,7.95-34.32,0.9
		c-7.88-5.48-12.54-14.03-12.79-23.46c-0.25-9.43,3.96-18.22,11.54-24.11c5.09-3.95,11.45-5.95,17.81-5.95
		c5.83,0,11.66,1.67,16.5,5.05c7.88,5.48,12.54,14.03,12.79,23.46C432.8,376.71,428.59,385.49,421.02,391.38z"/>
	<circle class="st1" cx="7.76" cy="551.46" r="7.55"/>
	<path class="st1" d="M41.75,543.91H30.42c-4.17,0-7.55,3.38-7.55,7.55c0,4.17,3.38,7.55,7.55,7.55h11.33
		c4.17,0,7.55-3.38,7.55-7.55C49.3,547.29,45.92,543.91,41.75,543.91z"/>
	<path class="st1" d="M604.48,543.91h-11.33c-4.17,0-7.55,3.38-7.55,7.55c0,4.17,3.38,7.55,7.55,7.55h11.33
		c4.17,0,7.55-3.38,7.55-7.55C612.04,547.29,608.66,543.91,604.48,543.91z"/>
	<circle class="st1" cx="627.14" cy="551.46" r="7.55"/>
	<path class="st1" d="M569.44,543.91h-10.28V166.23c0-4.17-3.38-7.55-7.55-7.55H83.29c-4.17,0-7.55,3.38-7.55,7.55v377.68H65.46
		c-4.75,0-8.61,3.38-8.61,7.55c0,4.17,3.85,7.55,8.61,7.55h503.98c4.75,0,8.61-3.38,8.61-7.55
		C578.05,547.29,574.19,543.91,569.44,543.91z M90.84,173.79h453.21v45.32H90.84V173.79z M90.84,543.91V234.21h453.21v309.69H90.84z
		"/>
	<circle class="st0" cx="90.13" cy="40.05" r="5.33"/>
	<circle class="st0" cx="292.06" cy="8.72" r="8.72"/>
	<circle class="st0" cx="39.48" cy="246.6" r="10.21"/>
	<circle class="st0" cx="605.63" cy="246.68" r="10.29"/>
</g>
</svg>
