<svg fill="none" height="112" viewBox="0 0 113 112" width="113" xmlns="http://www.w3.org/2000/svg"><g stroke="#01090f" stroke-miterlimit="10"><path d="m48.1642 102.682c21.9233 0 39.6955-17.7723 39.6955-39.6955s-17.7722-39.6955-39.6955-39.6955c-21.9232 0-39.69545 17.7723-39.69545 39.6955s17.77225 39.6955 39.69545 39.6955z" fill="#9bcdfb"/><path d="m61.6919 82.03c-12.4857-6.2743-27.0523-7.504-36.0066 4.6979-1.7026 2.3331-2.9322 4.3195-3.7205 6.0536 6.5582 5.7699 15.0711 9.4275 24.4037 9.8375 2.617.283 3.7836.063 5.6123-.158 7.0941-.694 13.6207-3.216 19.1068-7.1256-1.7972-5.3915-5.8014-11.5082-9.3957-13.3054z" fill="#2fd395"/><path d="m69.5361 29.5344c-8.1345 2.3647-14.7242 7.6932-16.8682 17.2466-5.0447 22.3228 10.0894 13.5261 15.0396 15.8593 1.3872.6621 1.8287 4.4456 4.5402 4.0672 10.0894-1.4503 1.3557-20.1157 9.9002-16.5844 2.207.9144 3.9412 6.7158 5.6122 10.7831-.6621-13.2108-7.7877-24.656-18.224-31.3718z" fill="#2fd395"/><path d="m27.5125 67.2439c1.3558-.7252 4.6663 1.2296 5.9906-1.1666 4.9186-8.9228-15.2287-13.2424-7.2518-17.9087 4.1304-2.4278 22.8588 8.6075 15.4179-2.1125-3.4052-4.9186-15.6071.7252-8.8598-12.4225 1.7657-3.4367.1577-5.2655-2.9007-5.8961-12.7378 6.6212-21.43995 19.8951-21.43995 35.2499 0 3.8466.56753 7.567 1.57645 11.0983 11.0038 9.585 13.1478-4.5717 17.4673-6.8418z" fill="#2fd395"/></g><path d="m68.1875 25.9719c0 1.2934.2541 2.5742.7477 3.7692s1.217 2.2808 2.1291 3.1954c.912.9146 1.9948 1.6402 3.1865 2.1351 1.1916.495 2.4688.7498 3.7587.7498 1.3317.0021 2.6497-.2694 3.8728-.7977-1.765-.7607-3.2689-2.0236-4.3256-3.6324-1.0568-1.6088-1.6201-3.493-1.6201-5.4194.0007-1.9259.5643-3.8094 1.621-5.4175 1.0567-1.6082 2.5602-2.8705 4.3247-3.631-1.2231-.5283-2.5411-.7997-3.8728-.7977-2.6044 0-5.1021 1.0373-6.944 2.8837s-2.8771 4.3508-2.878 6.9625z" fill="#bd80ff" stroke="#000" stroke-linecap="round" stroke-linejoin="round"/><path d="m86.2297 8c-.1618 0-.3203 0-.4787 0s-.337 0-.4786 0h-6.7951c1.1437.02949 2.2817.17214 3.3975.42589 8.1974 1.87591 14.3352 9.57241 14.3352 18.78641 0 11.4517-8.986 25.3775-14.3352 32.648-2.0695 2.819-3.5931 4.6341-3.8357 4.9214h7.7524s18.1705-21.6831 18.1705-37.5694c-.003-10.4478-7.8969-18.94528-17.7323-19.2123z" fill="#bd80ff" stroke="#000" stroke-linecap="round" stroke-linejoin="round"/><path d="m81.8788 8.42589c-1.1158-.25375-2.2538-.3964-3.3975-.42589-.1585 0-.3169 0-.4753 0-10.0579 0-18.2013 8.609-18.2013 19.2258 0 15.8863 17.3013 36.5385 18.1743 37.5694h.0742c.2427-.2873 1.7662-2.1024 3.8357-4.9213 5.3492-7.2706 14.3352-21.1964 14.3352-32.6481-.0101-9.2276-6.1479-16.924-14.3453-18.79991zm0 26.60791c-1.2231.5283-2.5411.7998-3.8728.7977-1.2907 0-2.5687-.2551-3.761-.7508-1.1924-.4956-2.2756-1.222-3.1878-2.1377s-1.6354-2.0027-2.1284-3.1988c-.493-1.1962-.7461-2.4781-.7448-3.7724.0009-2.6117 1.0361-5.116 2.878-6.9625 1.8419-1.8464 4.3396-2.8836 6.944-2.8836 1.3317-.0021 2.6497.2694 3.8728.7977 1.765.7597 3.269 2.0218 4.3259 3.6302 1.0568 1.6083 1.62 3.4921 1.6199 5.4182.0027 1.9284-.5592 3.8151-1.6162 5.4261s-2.5625 2.8752-4.3296 3.6359z" fill="#bd80ff" stroke="#000" stroke-linecap="round" stroke-linejoin="round"/></svg>