<svg fill="none" height="112" viewBox="0 0 113 112" width="113" xmlns="http://www.w3.org/2000/svg" xmlns:xlink="http://www.w3.org/1999/xlink"><clipPath id="a"><path d="m.5 0h112v112h-112z"/></clipPath><g clip-path="url(#a)"><rect fill="#fff" height="79" rx="5.5" stroke="#000" width="67" x="10" y="24.5"/><g stroke-linecap="round" stroke-linejoin="round"><path d="m19.3633 58.4897h45.2573" stroke="#000"/><path d="m19.3633 69.7297h45.2573" stroke="#000"/><path d="m19.3633 80.9705h45.2573" stroke="#000"/><path d="m49.0168 89.6396c-.1595.2694-.3119.5424-.4537.8189-.4927.9499-.8933 2.0913-.4608 3.0696.5494 1.2406 2.2295 1.6057 3.5197 1.1768s2.2934-1.4178 3.3249-2.3005c1.0315-.8826 1.9566-1.7226 3.3141-1.7368 1.4179 0 2.5273.9535 3.6332 1.8432s2.2509 2.0701 4.0834 2.0701" stroke="#000"/><path d="m36.7897 50.6921c-.4072-1.5952-1.2545-3.0439-2.4453-4.1808s-2.6771-1.9162-4.2894-2.2491c.4742-.1751.9225-.4136 1.3327-.7089 0 0 .0319-.0283.0603-.0425.7235-.5261 1.3123-1.216 1.7182-2.0131.406-.7972.6177-1.679.6177-2.5736 0-1.5117-.6005-2.9614-1.6694-4.0303s-2.5187-1.6694-4.0304-1.6694c-.706-.0008-1.4059.1315-2.0629.3899-1.0717.4161-1.9925 1.1465-2.6415 2.0954-.6491.9488-.996 2.0719-.9953 3.2215.0011 1.0907.3153 2.1582.9054 3.0756.59.9173 1.431 1.646 2.423 2.0994.1312.0603.2623.117.397.1666-.6228.1352-1.2298.3348-1.8113.5956-1.3276.5783-2.4884 1.4814-3.3755 2.6262-.887 1.1447-1.4717 2.4942-1.7003 3.9242h17.7229c-.0496-.2588-.0992-.4927-.1559-.7267z" fill="#9bcdfb" stroke="#000"/><path d="m43.8398 35.9719h21.179" stroke="#000"/><path d="m43.8398 47.2109h21.179" stroke="#000"/><path d="m85.7454 26.8488-17.1126 50.4268 5.0145 1.3927 17.1126-50.4268z" fill="#ffc664" stroke="#000900"/><path d="m90.7767 28.2749-17.1126 50.4268 5.3898 1.4969 17.1126-50.4268z" fill="#fcee70" stroke="#000900"/><path d="m96.147 29.7341-17.1103 50.4278 5.4174 1.5073 17.1139-50.4296-.004.0017z" fill="#ffc664" stroke="#000900"/><path d="m103.954 24.2122.886-2.6131c2.849-8.3944-12.9739-12.78641-15.821-4.3968l-.8883 2.6179 15.8193 4.3937z" fill="#ff9fbf" stroke="#000"/><path d="m72.2524 92.1195 5.0777-4.3454-6.5789-1.8245z" fill="#000900" stroke="#000900"/><path d="m79.0348 80.1629-5.3895-1.4943-5.0128-1.3922 2.1118 8.6729 6.5789 1.8245 7.1339-6.1023z" fill="#fcee70" stroke="#000"/><path d="m86.9428 23.3151-1.1949 3.529.0017.0031.0016-.0049 5.0128 1.3923 5.3879 1.499 5.4201 1.5056 1.195-3.529z" fill="#cfd8dc" stroke="#000900"/><path d="m103.955 24.212-15.8199-4.3937-.0049-.0013-1.1867 3.4968 15.8245 4.3951z" fill="#cfd8dc" stroke="#000900"/></g></g></svg>