<svg width="114" height="20" viewBox="0 0 114 20" fill="none" xmlns="http://www.w3.org/2000/svg">
<g clip-path="url(#clip0_769_15365)">
<path d="M110.884 0.742576L108.228 0.733597V3.58849L110.884 3.57432V19.4286H113.54V0.742576H110.884ZM104.933 5.28461C104.933 2.79124 103.761 0.585205 100.999 0.585205C98.7835 0.585205 97.0132 2.42026 97.0132 4.65418V6.12345H99.6687V4.59841C99.6687 3.73216 100.188 3.2591 100.971 3.2591C102.273 3.2591 102.273 4.38527 102.273 5.33092C102.273 6.35501 102.273 6.87864 101.805 7.7964L97.0132 16.9027V19.4239H104.933V16.7453H100.141L104.048 9.15887C104.882 7.56436 104.933 7.09178 104.933 5.28461ZM79.9401 9.0894H78.4292V3.26383H79.8106C81.7662 3.26383 82.0766 4.28792 82.0766 6.17874C82.0766 8.03742 81.794 9.0894 79.9401 9.0894ZM84.7368 6.22978C84.7368 2.60599 83.1981 0.742576 80.0469 0.742576H75.7738V19.4286H78.4292V11.4528H80.019L82.4939 19.4334H85.3068L82.4429 10.9013C84.1343 9.95565 84.7368 8.38005 84.7368 6.22978ZM63.7568 19.4286H71.6774V16.75H66.417V11.2676H71.0006V8.7463H66.417V3.26383H71.6774V0.742576H63.7568V19.4286ZM54.8358 13.7883H54.7848L52.6761 0.742576H49.8633L53.6402 19.4286H55.9851L59.7899 0.742576H56.9771L54.8358 13.7883ZM38.532 19.4286H46.4521V16.75H41.1875V11.2676H45.7711V8.7463H41.1875V3.26383H46.4479V0.742576H38.532V19.4286ZM29.4489 9.0894H27.9381V3.26383H29.319C31.275 3.26383 31.5855 4.28792 31.5855 6.17874C31.5808 8.03742 31.2982 9.0894 29.4489 9.0894ZM34.241 6.22978C34.241 2.60599 32.7022 0.742576 29.551 0.742576H25.2779V19.4286H27.9333V11.4528H29.5231L31.9976 19.4334H34.8109L31.9466 10.9013C33.6431 9.95565 34.241 8.38005 34.241 6.22978ZM18.3498 15.0213C18.3498 16.3096 17.5152 16.9121 16.5516 16.9121C15.5875 16.9121 14.7534 16.3096 14.7534 15.0213V5.14992C14.7534 3.86165 15.5875 3.2591 16.5516 3.2591C17.5152 3.2591 18.3498 3.86165 18.3498 5.14992V15.0213ZM16.5516 0.585205C14.3871 0.585205 12.0979 2.10504 12.0979 5.14992V15.0166C12.0979 18.0615 14.3918 19.5813 16.5516 19.5813C18.7155 19.5813 21.0052 18.0615 21.0052 15.0166V5.14992C21.0052 2.10504 18.7155 0.585205 16.5516 0.585205ZM0.460938 19.4286H3.1164V11.4528H7.70002V8.93156H3.1164V3.26383H8.37629V0.742576H0.460938V19.4286Z" fill="white"/>
</g>
<defs>
<clipPath id="clip0_769_15365">
<rect width="113.079" height="18.9961" fill="white" transform="translate(0.460938 0.585205)"/>
</clipPath>
</defs>
</svg>
