<svg width="160" height="40" viewBox="0 0 160 40" fill="none" xmlns="http://www.w3.org/2000/svg">
<path d="M116.093 17.6364V26.7866C115.86 30.4128 110.528 30.4128 110.295 26.7866V17.6364H105.252V27.7777C105.252 31.2026 108.804 33.9793 113.175 33.9793C117.547 33.9793 121.098 31.2026 121.098 27.7777V17.6364H116.093ZM132.491 6.76025V33.39H137.562V6.76025H132.491ZM123.882 33.39H128.952V6.76025H123.882V33.39ZM99.0473 19.5382C100.452 18.2775 101.262 16.4847 101.285 14.5988C101.282 12.8983 100.626 11.2653 99.4538 10.0341C98.2607 8.70419 96.102 7.95811 93.2084 7.95811H84.5346V33.39H95.7385C100.026 33.3239 103.494 30.0803 103.494 26.1066C103.487 23.2145 102.468 21.1473 99.0473 19.5382ZM94.7991 28.9596H89.9473V12.3431H93.3277C94.8461 12.4139 96.0392 13.6754 96.0233 15.1954C96.0233 16.6836 94.8151 17.8886 93.3277 17.8854H91.5683V22.4557H94.7991C99.1523 22.4557 99.1523 28.9811 94.7991 28.9811V28.9596ZM39.8178 15.4873C39.7995 13.4797 38.9834 11.5604 37.5469 10.1526C36.1152 8.74555 34.1784 7.96527 32.1693 7.98436H22.8887V33.39H28.2846V12.3431H31.0788C32.9734 12.2779 34.5555 13.778 34.5865 15.6742C34.503 17.5712 32.9082 19.0546 31.0072 18.9942H29.7545V25.0749L35.1234 33.39H41.4467L33.9899 22.7794C37.3863 21.9896 39.7963 18.9735 39.8178 15.4873ZM49.2551 16.9786C44.6522 17.1027 40.987 20.8681 40.987 25.4694C40.987 30.0748 44.6522 33.8394 49.2551 33.965C52.793 33.965 55.5498 32.3639 56.9759 29.8608L52.8526 27.955C52.2561 29.1617 51.0153 29.9125 49.6735 29.8815C47.8369 29.9618 46.2875 28.5341 46.2191 26.6967V26.5225H57.3975C57.4317 26.1837 57.4468 25.8465 57.4436 25.5036C57.5224 19.9916 53.8906 16.9786 49.2551 16.9786ZM46.2008 23.6305C46.1228 21.8655 47.5339 20.3933 49.3012 20.3933C51.0654 20.3933 52.4756 21.8655 52.3993 23.6305H46.2008ZM77.6092 33.39V6.76025H72.5322V19.364C71.1832 18.0031 69.3466 17.234 67.4306 17.2236C63.2547 17.2236 59.8433 20.9405 59.8433 25.5219C59.8433 30.1018 63.2444 33.8553 67.4306 33.8553C69.3665 33.8394 71.2118 33.044 72.556 31.6552V33.4448L77.6092 33.39ZM68.8694 29.4989C66.8189 29.4989 65.147 27.6751 65.147 25.4257C65.147 23.1771 66.8189 21.3278 68.8694 21.3278C70.9231 21.3278 72.5974 23.1549 72.5974 25.4074C72.5974 27.6631 70.9295 29.4989 68.8694 29.4989Z" fill="white"/>
</svg>
