<svg width="160" height="40" viewBox="0 0 160 40" fill="none" xmlns="http://www.w3.org/2000/svg">
<g clip-path="url(#clip0_174_25617)">
<path d="M123.737 16.2345C125.05 16.2345 126.114 15.1701 126.114 13.8572C126.114 12.5443 125.05 11.48 123.737 11.48C122.424 11.48 121.359 12.5443 121.359 13.8572C121.359 15.1701 122.424 16.2345 123.737 16.2345Z" fill="white"/>
<path d="M89.9166 23.9651C91.0747 23.9651 91.7485 23.0997 91.698 22.2469C91.6866 21.9247 91.6471 21.6042 91.5801 21.2888C90.8705 18.2125 88.3669 15.9385 85.3896 15.9385C81.8606 15.9385 78.999 19.1327 78.999 23.0723C78.999 27.0119 81.8606 30.2061 85.3896 30.2061C87.6005 30.2061 89.1797 29.4018 90.3293 28.1405C90.4616 27.996 90.5615 27.825 90.6223 27.6388C90.6832 27.4526 90.7037 27.2556 90.6823 27.0609C90.661 26.8662 90.5984 26.6783 90.4987 26.5097C90.399 26.3412 90.2644 26.1958 90.104 26.0833C89.5482 25.698 88.8407 25.8286 88.329 26.2644C87.8173 26.7003 86.8951 27.5278 85.3811 27.5278C83.583 27.5278 82.0838 25.9949 81.7405 23.9609L89.9166 23.9651ZM85.3896 18.6147C87.0088 18.6147 88.3838 19.8549 88.8933 21.5857H81.8858C82.3975 19.8549 83.7725 18.6147 85.3896 18.6147Z" fill="white"/>
<path d="M79.1459 17.3216C79.1462 17.0053 79.0342 16.6992 78.8298 16.4578C78.6254 16.2164 78.342 16.0554 78.0299 16.0035C76.0822 15.7087 74.2609 16.4373 73.2018 17.7533V17.5722C73.188 17.2265 73.0411 16.8995 72.7916 16.6598C72.5422 16.42 72.2096 16.2861 71.8636 16.2861C71.5177 16.2861 71.1851 16.42 70.9357 16.6598C70.6862 16.8995 70.5392 17.2265 70.5255 17.5722V28.5214C70.5207 28.8699 70.6485 29.2071 70.8831 29.4648C71.1177 29.7224 71.4415 29.8813 71.7889 29.909C71.9713 29.9205 72.154 29.8945 72.326 29.8327C72.4979 29.7708 72.6553 29.6743 72.7885 29.5492C72.9217 29.4241 73.0278 29.273 73.1004 29.1053C73.1729 28.9376 73.2103 28.7568 73.2102 28.5741V22.9247C73.2102 20.4253 75.0884 18.3745 77.6678 18.6524C77.7559 18.6629 77.845 18.6629 77.9331 18.6524C78.2648 18.6219 78.5732 18.4685 78.7976 18.2223C79.022 17.976 79.1463 17.6548 79.1459 17.3216Z" fill="white"/>
<path d="M125.075 18.7619C125.075 18.4073 124.934 18.0672 124.683 17.8164C124.432 17.5657 124.092 17.4248 123.737 17.4248C123.383 17.4248 123.043 17.5657 122.792 17.8164C122.541 18.0672 122.4 18.4073 122.4 18.7619V28.5719C122.4 28.9265 122.541 29.2666 122.792 29.5174C123.043 29.7681 123.383 29.909 123.737 29.909C124.092 29.909 124.432 29.7681 124.683 29.5174C124.934 29.2666 125.075 28.9265 125.075 28.5719V18.7619Z" fill="white"/>
<path d="M105.158 11.3309C105.158 11.1551 105.124 10.981 105.057 10.8186C104.99 10.6561 104.891 10.5084 104.767 10.3841C104.643 10.2597 104.495 10.161 104.333 10.0937C104.171 10.0264 103.997 9.9917 103.821 9.9917C103.645 9.9917 103.471 10.0264 103.309 10.0937C103.146 10.161 102.999 10.2597 102.875 10.3841C102.751 10.5084 102.652 10.6561 102.585 10.8186C102.518 10.981 102.484 11.1551 102.484 11.3309V17.3045C102.037 16.8564 101.503 16.5041 100.915 16.2691C100.327 16.0342 99.6973 15.9215 99.0644 15.938C95.5354 15.938 92.6738 19.1322 92.6738 23.0718C92.6738 27.0114 95.5354 30.2056 99.0644 30.2056C99.7018 30.2199 100.335 30.1049 100.927 29.8675C101.519 29.63 102.056 29.2752 102.507 28.8243C102.569 29.1521 102.751 29.4449 103.017 29.6453C103.284 29.8457 103.616 29.9393 103.948 29.9076C104.28 29.876 104.588 29.7214 104.812 29.4742C105.036 29.2271 105.159 28.9052 105.158 28.5717V11.3309ZM99.0644 27.5315C97.0135 27.5315 95.3501 25.5354 95.3501 23.0718C95.3501 20.6082 97.0135 18.6142 99.0644 18.6142C101.115 18.6142 102.781 20.6103 102.781 23.0718C102.781 25.5333 101.117 27.5315 99.0644 27.5315Z" fill="white"/>
<path d="M119.13 11.3309C119.13 10.9757 118.989 10.6351 118.738 10.3839C118.486 10.1328 118.146 9.9917 117.791 9.9917C117.436 9.99226 117.096 10.1336 116.845 10.3847C116.594 10.6358 116.454 10.9761 116.454 11.3309V17.3045C116.007 16.8566 115.473 16.5045 114.886 16.2695C114.298 16.0346 113.669 15.9218 113.036 15.938C109.505 15.938 106.644 19.1322 106.644 23.0718C106.644 27.0114 109.505 30.2056 113.036 30.2056C113.674 30.2194 114.307 30.1041 114.899 29.8668C115.49 29.6294 116.028 29.2748 116.479 28.8243C116.541 29.1521 116.723 29.4449 116.989 29.6453C117.256 29.8457 117.588 29.9393 117.92 29.9076C118.252 29.876 118.56 29.7214 118.784 29.4742C119.008 29.2271 119.131 28.9052 119.13 28.5717V11.3309ZM113.036 27.5315C110.983 27.5315 109.32 25.5354 109.32 23.0718C109.32 20.6082 110.983 18.6142 113.036 18.6142C115.089 18.6142 116.751 20.6103 116.751 23.0718C116.751 25.5332 115.087 27.5315 113.036 27.5315Z" fill="white"/>
<path d="M131.872 28.572V18.6145H133.066C133.373 18.6178 133.67 18.5052 133.897 18.2991C134.125 18.093 134.266 17.8086 134.293 17.5027C134.303 17.3407 134.28 17.1783 134.224 17.0256C134.169 16.873 134.083 16.7332 133.972 16.6149C133.861 16.4966 133.727 16.4022 133.578 16.3377C133.429 16.2731 133.268 16.2396 133.106 16.2394H131.876V14.3443C131.881 13.9992 131.754 13.6653 131.523 13.4094C131.291 13.1536 130.971 12.9949 130.627 12.9651C130.443 12.9523 130.258 12.9778 130.084 13.0401C129.91 13.1023 129.751 13.1998 129.616 13.3266C129.482 13.4534 129.375 13.6066 129.303 13.7767C129.23 13.9468 129.194 14.13 129.196 14.3148V16.2457H128.088C127.782 16.2419 127.485 16.3541 127.258 16.5599C127.03 16.7657 126.889 17.0499 126.863 17.3553C126.853 17.5173 126.876 17.6796 126.931 17.8323C126.986 17.9849 127.071 18.1248 127.182 18.2431C127.294 18.3614 127.428 18.4558 127.576 18.5204C127.725 18.585 127.886 18.6184 128.048 18.6187H129.196V28.5762C129.196 28.7519 129.23 28.926 129.298 29.0883C129.365 29.2507 129.464 29.3982 129.588 29.5224C129.712 29.6465 129.86 29.745 130.023 29.8121C130.185 29.8791 130.359 29.9135 130.535 29.9132C130.711 29.9132 130.885 29.8785 131.047 29.8111C131.21 29.7436 131.358 29.6447 131.482 29.5201C131.606 29.3955 131.704 29.2476 131.771 29.0849C131.838 28.9222 131.872 28.7479 131.872 28.572Z" fill="white"/>
<path d="M47.442 5.89149C50.2322 5.89149 52.9598 6.71888 55.2798 8.26905C57.5998 9.81922 59.408 12.0225 60.4757 14.6004C61.5435 17.1782 61.8229 20.0148 61.2785 22.7514C60.7342 25.488 59.3906 28.0017 57.4176 29.9747C55.4446 31.9477 52.9309 33.2913 50.1943 33.8357C47.4576 34.38 44.6211 34.1006 42.0432 33.0329C39.4654 31.9651 37.2621 30.1569 35.7119 27.8369C34.1618 25.5169 33.3344 22.7893 33.3344 19.9991C33.3344 16.2575 34.8207 12.6692 37.4664 10.0235C40.1121 7.37782 43.7004 5.89149 47.442 5.89149ZM47.442 3.36475C44.152 3.36475 40.9359 4.34033 38.2004 6.16814C35.4649 7.99595 33.3329 10.5939 32.0738 13.6334C30.8148 16.673 30.4854 20.0176 31.1272 23.2443C31.7691 26.4711 33.3534 29.435 35.6797 31.7614C38.0061 34.0877 40.97 35.672 44.1968 36.3139C47.4235 36.9557 50.7682 36.6263 53.8077 35.3673C56.8472 34.1082 59.4452 31.9762 61.273 29.2407C63.1008 26.5052 64.0764 23.2891 64.0764 19.9991C64.0713 15.5889 62.3172 11.3608 59.1987 8.24238C56.0803 5.12392 51.8522 3.36976 47.442 3.36475Z" fill="white"/>
<path d="M56.8412 19.9994C56.8398 19.5964 56.72 19.2027 56.4967 18.8671C56.2735 18.5316 55.9566 18.269 55.5854 18.112C55.2142 17.955 54.8051 17.9105 54.4088 17.984C54.0125 18.0575 53.6466 18.2458 53.3564 18.5255C51.9498 17.5106 50.0127 16.8558 47.8544 16.78L48.7914 12.3708L51.8551 13.0214C51.8716 13.38 52.0185 13.7201 52.268 13.9781C52.5175 14.2361 52.8525 14.3942 53.2103 14.4227C53.5681 14.4512 53.924 14.3482 54.2112 14.133C54.4984 13.9178 54.6973 13.6052 54.7704 13.2539C54.8436 12.9025 54.786 12.5365 54.6086 12.2246C54.4311 11.9126 54.1459 11.6761 53.8065 11.5595C53.467 11.4429 53.0967 11.4541 52.765 11.591C52.4332 11.728 52.1629 11.9813 52.0046 12.3034L48.5893 11.577C48.5422 11.5668 48.4936 11.566 48.4463 11.5746C48.399 11.5833 48.3538 11.6013 48.3134 11.6275C48.2317 11.6807 48.1742 11.7639 48.1534 11.8591L47.1006 16.78C44.9171 16.841 42.9441 17.4896 41.5249 18.5255C41.3073 18.3234 41.0486 18.1709 40.7664 18.0784C40.4842 17.9859 40.1853 17.9557 39.8903 17.9898C39.5953 18.0239 39.3112 18.1216 39.0576 18.276C38.8039 18.4305 38.5868 18.638 38.421 18.8845C38.2553 19.1309 38.145 19.4103 38.0976 19.7034C38.0502 19.9966 38.067 20.2965 38.1466 20.5826C38.2263 20.8687 38.367 21.1341 38.5591 21.3606C38.7512 21.5871 38.9901 21.7692 39.2593 21.8945C39.2268 22.1035 39.2106 22.3147 39.2109 22.5262C39.2109 25.6846 42.8957 28.2577 47.4396 28.2577C51.9835 28.2577 55.6705 25.6909 55.6705 22.5262C55.6702 22.3189 55.654 22.1119 55.622 21.9071C55.9896 21.7432 56.3009 21.4752 56.5176 21.1361C56.7343 20.797 56.8468 20.4018 56.8412 19.9994ZM42.7336 21.4734C42.7336 21.1819 42.82 20.8969 42.982 20.6545C43.1439 20.4121 43.3741 20.2232 43.6434 20.1116C43.9128 20.0001 44.2091 19.9709 44.495 20.0278C44.781 20.0846 45.0436 20.225 45.2497 20.4312C45.4558 20.6373 45.5962 20.8999 45.6531 21.1858C45.71 21.4717 45.6808 21.7681 45.5692 22.0374C45.4577 22.3068 45.2687 22.5369 45.0264 22.6989C44.784 22.8609 44.499 22.9473 44.2075 22.9473C43.8166 22.9473 43.4417 22.792 43.1653 22.5156C42.8888 22.2392 42.7336 21.8643 42.7336 21.4734ZM50.9455 25.354C49.9411 26.3542 48.0208 26.4321 47.4543 26.4321C46.8879 26.4321 44.9676 26.3542 43.9653 25.354C43.93 25.3186 43.9019 25.2766 43.8827 25.2304C43.8636 25.1841 43.8537 25.1346 43.8537 25.0845C43.8537 25.0345 43.8636 24.9849 43.8827 24.9386C43.9019 24.8924 43.93 24.8504 43.9653 24.815C44.0007 24.7796 44.0428 24.7515 44.089 24.7324C44.1352 24.7132 44.1848 24.7034 44.2349 24.7034C44.2849 24.7034 44.3345 24.7132 44.3807 24.7324C44.427 24.7515 44.469 24.7796 44.5044 24.815C45.1361 25.4467 46.4879 25.672 47.4522 25.672C48.4166 25.672 49.7684 25.4467 50.4001 24.815C50.4716 24.7427 50.5689 24.7017 50.6706 24.7011C50.7722 24.7005 50.87 24.7404 50.9423 24.8118C51.0146 24.8833 51.0556 24.9806 51.0562 25.0823C51.0568 25.184 51.0169 25.2817 50.9455 25.354ZM50.6759 22.9473C50.3844 22.9473 50.0995 22.8609 49.8571 22.6989C49.6147 22.5369 49.4258 22.3068 49.3142 22.0374C49.2027 21.7681 49.1735 21.4717 49.2303 21.1858C49.2872 20.8999 49.4276 20.6373 49.6337 20.4312C49.8398 20.225 50.1025 20.0846 50.3884 20.0278C50.6743 19.9709 50.9707 20.0001 51.24 20.1116C51.5093 20.2232 51.7395 20.4121 51.9015 20.6545C52.0634 20.8969 52.1499 21.1819 52.1499 21.4734C52.1499 21.8643 51.9946 22.2392 51.7182 22.5156C51.4418 22.792 51.0669 22.9473 50.6759 22.9473Z" fill="white"/>
</g>
<defs>
<clipPath id="clip0_174_25617">
<rect width="160" height="40" fill="white"/>
</clipPath>
</defs>
</svg>
