<svg width="160" height="40" viewBox="0 0 160 40" fill="none" xmlns="http://www.w3.org/2000/svg">
<path d="M45.9744 26.441L45.9564 26.3837L57.3656 15.9388V10.9062H39.0614V15.9388H49.9945L50.0125 15.9871L38.7148 26.441V31.4736H57.5493V26.441H45.9744Z" fill="white"/>
<path d="M68.7838 10.4268C66.6724 10.4268 64.9517 10.7452 63.6216 11.3821C62.3828 11.9371 61.3391 12.8515 60.6262 14.0068C59.9443 15.1697 59.516 16.4637 59.3697 17.8038L64.9235 18.5844C65.1244 17.4011 65.5263 16.5623 66.1289 16.0681C66.8141 15.5512 67.6584 15.29 68.5156 15.3298C69.6427 15.3298 70.4604 15.6311 70.9688 16.2338C71.472 16.8365 71.7281 17.6713 71.7281 18.7712V19.3197H66.3881C63.6698 19.3197 61.7171 19.9224 60.5299 21.1278C59.3425 22.3332 58.7499 23.9243 58.752 25.9012C58.752 27.9263 59.3445 29.4331 60.5299 30.4214C61.7151 31.41 63.2058 31.9011 65.002 31.895C67.2299 31.895 68.9437 31.1287 70.1429 29.5958C70.8512 28.6537 71.357 27.5755 71.6286 26.4286H71.8305L72.5961 31.461H77.6287V18.717C77.6287 16.0831 76.9345 14.043 75.5463 12.5965C74.1579 11.15 71.9039 10.4268 68.7838 10.4268ZM70.5438 26.1363C69.7451 26.8022 68.6996 27.1337 67.3977 27.1337C66.3247 27.1337 65.5794 26.9459 65.1616 26.5702C64.9581 26.3925 64.7959 26.1721 64.6871 25.9247C64.5783 25.6773 64.5252 25.409 64.5319 25.1388C64.5198 24.884 64.5601 24.6294 64.6497 24.3906C64.7392 24.1517 64.8765 23.9336 65.0531 23.7495C65.244 23.5704 65.4693 23.4319 65.7155 23.3423C65.9616 23.2527 66.2231 23.2139 66.4846 23.2282H71.7371V23.5747C71.7479 24.0646 71.6458 24.5504 71.4389 24.9945C71.2318 25.4386 70.9256 25.8293 70.5438 26.1363Z" fill="white"/>
<path d="M108.057 10.9062H102.111V31.4765H108.057V10.9062Z" fill="white"/>
<path d="M143.16 10.9062C141.481 10.9062 140.157 11.4989 139.189 12.6842C138.493 13.5361 137.965 14.7947 137.603 16.4602H137.429L136.651 10.9062H131.573V31.4736H137.519V20.9262C137.519 19.5963 137.83 18.5767 138.453 17.8675C139.076 17.1583 140.225 16.8037 141.901 16.8037H144.158V10.9062H143.16Z" fill="white"/>
<path d="M125.679 11.5788C124.291 10.7531 122.54 10.3413 120.426 10.3433C117.099 10.3433 114.496 11.2905 112.615 13.185C110.735 15.0795 109.795 17.6912 109.795 21.0202C109.747 23.0328 110.186 25.0271 111.075 26.8332C111.889 28.4427 113.157 29.7785 114.722 30.6754C116.297 31.5857 118.17 32.0417 120.342 32.0435C122.22 32.0435 123.789 31.7543 125.049 31.1758C126.233 30.6562 127.264 29.8416 128.044 28.8102C128.787 27.7975 129.339 26.6578 129.672 25.447L124.549 24.0126C124.333 24.7999 123.918 25.5182 123.343 26.0979C122.765 26.6765 121.795 26.9658 120.435 26.9658C118.818 26.9658 117.613 26.5028 116.819 25.5766C116.244 24.9076 115.882 23.9523 115.722 22.7138H129.75C129.807 22.1352 129.837 21.65 129.837 21.2582V19.9775C129.871 18.2569 129.516 16.551 128.798 14.9871C128.126 13.5625 127.038 12.3744 125.679 11.5788ZM120.254 15.2463C122.665 15.2463 124.032 16.4326 124.356 18.8052H115.828C115.963 18.0136 116.291 17.2674 116.783 16.6325C117.564 15.7063 118.722 15.2443 120.254 15.2463Z" fill="white"/>
<path d="M105.148 2.61619C104.701 2.60098 104.255 2.67583 103.837 2.83631C103.419 2.99679 103.038 3.23962 102.716 3.55036C102.399 3.86408 102.15 4.24039 101.985 4.6554C101.821 5.0704 101.744 5.51504 101.761 5.96115C101.745 6.41013 101.822 6.85759 101.986 7.27562C102.151 7.69368 102.4 8.07332 102.718 8.39085C103.035 8.70838 103.415 8.95701 103.833 9.12123C104.252 9.28545 104.699 9.36172 105.148 9.3453C105.594 9.36216 106.039 9.28591 106.454 9.12144C106.869 8.95699 107.245 8.70787 107.559 8.39001C107.87 8.06885 108.113 7.68814 108.273 7.27072C108.433 6.85331 108.507 6.40787 108.49 5.96115C108.511 5.51707 108.438 5.07358 108.278 4.659C108.117 4.24443 107.872 3.86788 107.558 3.55339C107.244 3.23891 106.868 2.9934 106.453 2.83254C106.039 2.67169 105.595 2.59904 105.151 2.6192L105.148 2.61619Z" fill="white"/>
<path d="M92.8685 10.3433C90.8437 10.3433 89.2164 10.9791 87.9868 12.2508C87.0765 13.193 86.4088 14.5994 85.9828 16.4697H85.7929L85.0155 10.9158H79.9375V37.3866H85.8832V26.4837H86.1003C86.2817 27.2106 86.5361 27.9174 86.8597 28.5931C87.3627 29.6938 88.1875 30.6164 89.2253 31.239C90.3014 31.8261 91.5135 32.1185 92.7389 32.0859C95.2283 32.0859 97.1237 31.1166 98.4256 29.1777C99.7273 27.2391 100.378 24.5339 100.378 21.0624C100.378 17.7093 99.7486 15.0845 98.4888 13.188C97.2292 11.2915 95.3558 10.3433 92.8685 10.3433ZM93.4713 25.2481C92.7782 26.2526 91.6934 26.7549 90.2167 26.7549C89.608 26.783 89.001 26.6656 88.4467 26.4125C87.8921 26.1594 87.4061 25.7778 87.0285 25.2994C86.2589 24.333 85.8752 23.0101 85.8773 21.3305V20.9388C85.8773 19.2331 86.261 17.9273 87.0285 17.0212C87.7959 16.1152 88.8586 15.6671 90.2167 15.6772C91.7196 15.6772 92.8113 16.1543 93.4924 17.1086C94.1735 18.0629 94.514 19.3939 94.514 21.1015C94.5181 22.8674 94.1725 24.2496 93.4772 25.2481H93.4713Z" fill="white"/>
<path d="M36.4121 26.4414H15.8418V31.4801H36.4121V26.4414Z" fill="white"/>
</svg>
